<?xml version="1.0" encoding="utf-8"?>
<!-- Generator: Adobe Illustrator 19.0.0, SVG Export Plug-In . SVG Version: 6.00 Build 0)  -->
<svg version="1.1" id="Layer_1" xmlns="http://www.w3.org/2000/svg" xmlns:xlink="http://www.w3.org/1999/xlink" x="0px" y="0px"
	 viewBox="-264 383 234 28" style="enable-background:new -264 383 234 28;" xml:space="preserve">
<style type="text/css">
	.st0{fill:#FFFFFF;}
</style>
<g id="XMLID_1_">
</g>
<g>
</g>
<g>
	<path class="st0" d="M-260.3,386l5.5,0c2.9,0,5.4,1,7.6,3.1c2.2,2.1,3.3,4.7,3.3,7.7c0,3.1-1.1,5.7-3.2,7.8
		c-2.2,2.2-4.8,3.3-7.8,3.3h-5.5c-1.2,0-2-0.3-2.3-0.8c-0.2-0.4-0.4-1.1-0.4-1.9v-16.7c0-0.5,0-0.8,0-1.1c0-0.2,0.1-0.5,0.3-0.8
		C-262.4,386.3-261.6,386-260.3,386z M-250.9,401.1c1.2-1.1,1.7-2.4,1.7-4c0-1.6-0.6-3-1.7-4.1c-1.1-1.1-2.5-1.6-4-1.6h-2.9v11.3
		h2.9C-253.3,402.7-252,402.1-250.9,401.1z"/>
	<path class="st0" d="M-227.8,386.8c0.2-0.3,0.5-0.5,0.9-0.7c0.4-0.1,0.9-0.2,1.4-0.2c0.6,0,1,0.1,1.4,0.1c0.3,0.1,0.6,0.2,0.8,0.4
		c0.2,0.1,0.3,0.4,0.4,0.6c0.1,0.3,0.2,0.9,0.2,1.6v9.1c0,2.6-0.8,5-2.5,7.2c-0.8,1-1.8,1.8-3.1,2.5c-1.3,0.6-2.7,0.9-4.2,0.9
		c-1.5,0-2.9-0.3-4.2-1c-1.3-0.6-2.3-1.5-3-2.5c-1.6-2.1-2.4-4.5-2.4-7.2v-9c0-0.5,0-0.8,0-1.1c0-0.2,0.1-0.5,0.3-0.8
		s0.4-0.5,0.8-0.6c0.4-0.1,0.9-0.2,1.5-0.2c0.6,0,1.1,0.1,1.5,0.2c0.4,0.1,0.6,0.3,0.8,0.6c0.2,0.5,0.4,1.1,0.4,1.9v9
		c0,1.2,0.3,2.4,0.9,3.5c0.3,0.6,0.8,1,1.4,1.3s1.3,0.5,2.1,0.5c1.5,0,2.6-0.5,3.3-1.6c0.7-1.1,1.1-2.3,1.1-3.8v-9.2
		C-228.1,387.7-228,387.1-227.8,386.8z"/>
	<path class="st0" d="M-197.3,386.9c0.2,0.3,0.3,0.6,0.3,0.8c0,0.2,0,0.6,0,1v16.6c0,1.4-0.4,2.2-1.1,2.4c-0.4,0.1-0.9,0.2-1.4,0.2
		s-1-0.1-1.4-0.2c-0.3-0.1-0.6-0.2-0.8-0.4c-0.2-0.1-0.3-0.3-0.4-0.6c-0.1-0.3-0.2-0.9-0.2-1.6v-10c-0.5,0.6-1.2,1.6-2.2,3
		c-1,1.3-1.6,2.2-1.8,2.5s-0.4,0.6-0.5,0.7c-0.1,0.1-0.3,0.3-0.7,0.5c-0.4,0.2-0.8,0.3-1.3,0.3c-0.5,0-0.9-0.1-1.2-0.3
		c-0.4-0.2-0.6-0.4-0.8-0.6l-0.2-0.3c-0.4-0.5-1.2-1.6-2.4-3.2c-1.2-1.6-1.8-2.5-1.9-2.6v10.1c0,0.5,0,0.8,0,1
		c0,0.2-0.1,0.5-0.3,0.8c-0.3,0.5-1.1,0.8-2.3,0.8c-1.2,0-2-0.3-2.3-0.8c-0.2-0.3-0.3-0.5-0.3-0.8c0-0.2,0-0.6,0-1.1v-16.6
		c0-0.5,0-0.8,0-1c0-0.2,0.1-0.5,0.3-0.8c0.3-0.5,1.1-0.8,2.3-0.8c0.5,0,1,0.1,1.4,0.2c0.4,0.1,0.6,0.3,0.8,0.4l0.2,0.2l6.8,8.9
		c3.4-4.5,5.7-7.5,6.8-8.9c0.3-0.5,1.1-0.8,2.4-0.8C-198.4,386-197.6,386.3-197.3,386.9z"/>
	<path class="st0" d="M-178.7,390.5c0.5,1.1,0.8,2.2,0.8,3.5s-0.3,2.5-0.8,3.5c-0.5,1-1.2,1.9-2,2.5c-1.7,1.3-3.4,1.9-5.2,1.9h-3.8
		v3.4c0,0.5,0,0.8,0,1c0,0.2-0.1,0.5-0.3,0.8c-0.3,0.5-1.1,0.8-2.3,0.8c-1.4,0-2.2-0.4-2.5-1.1c-0.1-0.3-0.2-0.9-0.2-1.6v-16.6
		c0-0.5,0-0.8,0-1c0-0.2,0.1-0.5,0.3-0.8c0.3-0.5,1.1-0.8,2.3-0.8h6.4c1.8,0,3.5,0.6,5.1,1.9C-179.9,388.6-179.2,389.4-178.7,390.5z
		 M-184,396c0.6-0.4,0.9-1.1,0.9-2s-0.3-1.5-0.9-2c-0.6-0.5-1.2-0.7-1.8-0.7h-3.8v5.3h3.8C-185.2,396.6-184.6,396.4-184,396z"/>
	<path class="st0" d="M-175.9,404.9c-0.5-0.6-0.8-1.2-0.8-1.7c0-0.5,0.4-1.2,1.3-2c0.5-0.5,1-0.7,1.6-0.7s1.3,0.5,2.3,1.5
		c0.3,0.3,0.7,0.7,1.2,1c0.5,0.3,1,0.5,1.4,0.5c1.9,0,2.8-0.8,2.8-2.3c0-0.5-0.3-0.8-0.8-1.2s-1.1-0.5-1.9-0.7
		c-0.8-0.1-1.6-0.4-2.5-0.7c-0.9-0.3-1.7-0.7-2.5-1.1c-0.8-0.4-1.4-1.1-1.9-2c-0.5-0.9-0.8-2-0.8-3.3c0-1.8,0.7-3.3,2-4.6
		c1.3-1.3,3.1-2,5.4-2c1.2,0,2.3,0.2,3.3,0.5s1.7,0.6,2.1,0.9l0.8,0.6c0.6,0.6,0.9,1.1,0.9,1.5c0,0.4-0.2,1-0.7,1.6
		c-0.7,1-1.4,1.5-2.1,1.5c-0.4,0-0.9-0.2-1.6-0.6c-0.1,0-0.2-0.1-0.3-0.3s-0.3-0.3-0.5-0.4c-0.4-0.3-1-0.4-1.6-0.4
		c-0.6,0-1.2,0.2-1.6,0.5c-0.4,0.3-0.6,0.7-0.6,1.3c0,0.6,0.3,1,0.8,1.3c0.5,0.3,1.1,0.6,1.9,0.7s1.6,0.3,2.5,0.6
		c0.9,0.3,1.7,0.6,2.5,0.9c0.8,0.4,1.4,1,1.9,1.9c0.5,0.9,0.8,2,0.8,3.3c0,1.3-0.3,2.4-0.8,3.4c-0.5,1-1.2,1.8-2,2.3
		c-1.6,1.1-3.3,1.6-5.2,1.6c-0.9,0-1.8-0.1-2.7-0.3c-0.8-0.2-1.5-0.5-2-0.9c-1.1-0.6-1.8-1.3-2.2-1.9L-175.9,404.9z"/>
</g>
<g>
	<path class="st0" d="M-152.9,403c0.8,0.7,1.7,1.1,2.7,1.1c0.6,0,1.2-0.2,1.8-0.5l-2.7,6.8c-0.1,0.3-0.3,0.4-0.6,0.5s-0.6,0-0.8-0.2
		l-2-2l-2.7,0.1c-0.3,0-0.6-0.1-0.7-0.4s-0.2-0.5-0.1-0.8l2.4-5.9c0.4,0.4,0.9,0.6,1.3,0.7l0.5,0.1c0.2,0.1,0.4,0.1,0.4,0.2
		s0.1,0.1,0.2,0.2L-152.9,403z M-144.1,401.8c-0.4,0.4-0.8,0.6-1.3,0.6s-0.9,0-1.4-0.3c-0.3-0.2-0.7-0.3-1.1-0.3s-0.8,0.1-1.1,0.3
		c-0.4,0.2-0.9,0.3-1.4,0.3s-0.9-0.3-1.2-0.6s-0.6-0.6-0.8-0.7s-0.5-0.2-0.9-0.3l-0.4-0.1c-0.4-0.1-0.7-0.3-0.9-0.6
		s-0.4-0.6-0.6-0.9l-0.1-0.3c-0.1-0.6-0.3-0.9-0.3-1.1s-0.3-0.4-0.7-0.9l-0.2-0.2c-0.3-0.3-0.5-0.6-0.6-1s-0.1-0.7,0-1.1l0.1-0.3
		c0.1-0.6,0.2-0.9,0.2-1.1s-0.1-0.5-0.2-1.1l-0.1-0.3c-0.1-0.4-0.1-0.8,0-1.1s0.3-0.7,0.6-1l0.2-0.2c0.4-0.4,0.6-0.7,0.7-0.8
		s0.2-0.5,0.3-1.1l0.1-0.3c0.1-0.4,0.3-0.7,0.6-0.9s0.6-0.5,0.9-0.6l0.3-0.1c0.6-0.1,0.9-0.3,1.1-0.4s0.4-0.4,0.8-0.7l0.2-0.2
		c0.3-0.3,0.6-0.5,1-0.6s0.7-0.1,1.1,0l0.3,0.1c0.6,0.1,0.9,0.2,1.1,0.2s0.5-0.1,1.1-0.2l0.3-0.1c0.4-0.1,0.7-0.1,1.1,0
		s0.7,0.3,1,0.6l0.2,0.2c0.4,0.4,0.7,0.6,0.8,0.7s0.5,0.2,1.1,0.4l0.3,0.1c0.4,0.1,0.7,0.3,0.9,0.6s0.4,0.6,0.6,0.9l0.1,0.3
		c0.1,0.6,0.3,0.9,0.3,1.1s0.3,0.4,0.7,0.8l0.2,0.2c0.3,0.3,0.5,0.6,0.6,1s0.1,0.7,0,1.1l-0.1,0.3c-0.1,0.6-0.2,0.9-0.2,1.1
		s0.1,0.5,0.2,1.1l0.1,0.3c0.1,0.4,0.1,0.7,0,1.1s-0.3,0.7-0.6,1l-0.2,0.2c-0.4,0.4-0.6,0.7-0.7,0.9s-0.2,0.5-0.3,1.1l-0.1,0.3
		c-0.1,0.4-0.3,0.7-0.6,0.9s-0.6,0.5-0.9,0.6l-0.4,0.1c-0.4,0.1-0.7,0.2-0.9,0.3S-143.8,401.5-144.1,401.8z M-152.8,393.2
		c0,1.4,0.5,2.6,1.5,3.6s2.1,1.5,3.5,1.5s2.5-0.5,3.5-1.5s1.5-2.2,1.5-3.6s-0.5-2.6-1.5-3.6s-2.1-1.5-3.5-1.5s-2.5,0.5-3.5,1.5
		S-152.8,391.8-152.8,393.2z M-137.8,407.6c0.1,0.3,0.1,0.5-0.1,0.8s-0.4,0.4-0.7,0.4l-2.7-0.1l-2,2c-0.2,0.2-0.5,0.3-0.8,0.2
		s-0.5-0.2-0.6-0.5l-2.7-6.8c0.6,0.4,1.2,0.5,1.8,0.5c1.1,0,2-0.4,2.7-1.1l0.2-0.2c0.1-0.1,0.2-0.2,0.2-0.2s0.2-0.1,0.4-0.2l0.5-0.1
		c0.5-0.1,0.9-0.4,1.3-0.7L-137.8,407.6z"/>
</g>
<g>
</g>
<g>
</g>
<g>
	<path class="st0" d="M-121.6,388.1l8.1,16.7c0.3,0.7,0.5,1.2,0.5,1.5c0,0.7-0.6,1.4-1.7,2c-0.7,0.3-1.2,0.5-1.6,0.5
		c-0.4,0-0.7-0.1-1-0.3c-0.3-0.2-0.4-0.4-0.5-0.6c-0.1-0.2-0.3-0.5-0.5-0.9l-1.6-3.2h-8.3l-1.6,3.2c-0.2,0.4-0.4,0.7-0.5,0.9
		c-0.1,0.2-0.3,0.4-0.5,0.6c-0.3,0.2-0.6,0.3-1,0.3s-0.9-0.2-1.6-0.5c-1.2-0.6-1.7-1.2-1.7-1.9c0-0.3,0.2-0.8,0.5-1.5l8.1-16.8
		c0.2-0.5,0.6-0.8,1-1.1c0.4-0.3,0.9-0.4,1.4-0.4C-122.9,386.5-122.1,387-121.6,388.1z M-124,395.3l-2,4.1h4L-124,395.3z"/>
	<path class="st0" d="M-94.5,404.8c0.3,0.7,0.5,1.2,0.5,1.6c0,0.8-0.6,1.4-1.9,1.9c-0.6,0.3-1.2,0.4-1.5,0.4c-0.4,0-0.7-0.1-1-0.3
		c-0.3-0.2-0.4-0.4-0.6-0.6c-0.2-0.4-1-2.2-2.3-5.4l-0.9,0.1h-3.8v3.4c0,0.5,0,0.8,0,1s-0.1,0.5-0.3,0.8c-0.3,0.5-1.1,0.8-2.3,0.8
		c-1.4,0-2.2-0.4-2.5-1.1c-0.1-0.3-0.2-0.9-0.2-1.6v-16.6c0-0.5,0-0.8,0-1s0.1-0.5,0.3-0.8c0.3-0.5,1.1-0.8,2.3-0.8h6.5
		c1.8,0,3.5,0.6,5.1,1.9c0.8,0.6,1.5,1.5,2,2.5c0.5,1.1,0.8,2.2,0.8,3.5c0,2.3-0.8,4.1-2.3,5.6C-96.1,401.1-95.4,402.7-94.5,404.8z
		 M-106,397.1h3.8c0.6,0,1.2-0.2,1.7-0.7s0.9-1.1,0.9-2s-0.3-1.5-0.9-2c-0.6-0.5-1.2-0.7-1.8-0.7h-3.8V397.1z"/>
	<path class="st0" d="M-87.1,403.2h9.2c0.5,0,0.8,0,1,0c0.2,0,0.5,0.1,0.8,0.3c0.5,0.3,0.8,1.1,0.8,2.3c0,1.4-0.4,2.2-1.1,2.5
		c-0.3,0.1-0.9,0.2-1.6,0.2h-11.9c-1.4,0-2.2-0.4-2.5-1.1c-0.1-0.3-0.2-0.8-0.2-1.5v-16.7c0-1,0.2-1.7,0.6-2.1
		c0.4-0.4,1.1-0.6,2.2-0.6h11.8c0.5,0,0.8,0,1,0c0.2,0,0.5,0.1,0.8,0.3c0.5,0.3,0.8,1.1,0.8,2.3c0,1.4-0.4,2.2-1.1,2.5
		c-0.3,0.1-0.9,0.2-1.6,0.2h-9.2v3h5.9c0.5,0,0.8,0,1,0c0.2,0,0.5,0.1,0.8,0.3c0.5,0.3,0.8,1.1,0.8,2.3c0,1.4-0.4,2.2-1.1,2.5
		c-0.3,0.1-0.9,0.2-1.6,0.2h-5.9V403.2z"/>
	<path class="st0" d="M-59.1,387.4c0.2-0.3,0.5-0.6,0.9-0.7c0.4-0.1,0.9-0.2,1.4-0.2c0.6,0,1,0.1,1.4,0.1c0.3,0.1,0.6,0.2,0.8,0.4
		c0.2,0.1,0.3,0.4,0.4,0.6c0.1,0.3,0.2,0.8,0.2,1.5v16.6c0,0.5,0,0.8,0,1.1c0,0.2-0.1,0.5-0.3,0.8c-0.3,0.5-1.1,0.8-2.3,0.8
		c-0.8,0-1.3-0.1-1.6-0.2c-0.3-0.1-0.6-0.3-0.8-0.6c-4.5-6-7.5-9.9-8.9-11.8v9.9c0,0.5,0,0.8,0,1.1c0,0.2-0.1,0.5-0.3,0.8
		c-0.3,0.5-1.1,0.8-2.3,0.8c-1.2,0-2-0.3-2.3-0.8c-0.2-0.3-0.3-0.6-0.3-0.8c0-0.2,0-0.6,0-1v-16.7c0-0.8,0.1-1.3,0.3-1.7
		c0.2-0.3,0.5-0.6,0.9-0.7c0.4-0.1,0.9-0.2,1.5-0.2c0.6,0,1.1,0.1,1.4,0.2c0.3,0.1,0.6,0.2,0.7,0.4c0.1,0.1,0.3,0.3,0.7,0.8
		c4.2,5.7,7,9.5,8.5,11.4v-10.1C-59.4,388.3-59.3,387.8-59.1,387.4z"/>
	<path class="st0" d="M-39,388.1l8.1,16.7c0.3,0.7,0.5,1.2,0.5,1.5c0,0.7-0.6,1.4-1.7,2c-0.7,0.3-1.2,0.5-1.6,0.5
		c-0.4,0-0.7-0.1-1-0.3c-0.3-0.2-0.4-0.4-0.5-0.6c-0.1-0.2-0.3-0.5-0.5-0.9l-1.6-3.2h-8.3l-1.6,3.2c-0.2,0.4-0.4,0.7-0.5,0.9
		c-0.1,0.2-0.3,0.4-0.5,0.6c-0.3,0.2-0.6,0.3-1,0.3s-0.9-0.2-1.6-0.5c-1.2-0.6-1.7-1.2-1.7-1.9c0-0.3,0.2-0.8,0.5-1.5l8.1-16.8
		c0.2-0.5,0.6-0.8,1-1.1c0.4-0.3,0.9-0.4,1.4-0.4C-40.3,386.5-39.5,387-39,388.1z M-41.4,395.3l-2,4.1h4L-41.4,395.3z"/>
</g>
</svg>
